<?xml version="1.0" encoding="utf-8" standalone="no"?>
<!DOCTYPE svg PUBLIC "-//W3C//DTD SVG 1.1//EN"
  "http://www.w3.org/Graphics/SVG/1.1/DTD/svg11.dtd">
<svg height="432pt" version="1.1" viewBox="0 0 720 432" width="720pt" xmlns="http://www.w3.org/2000/svg" xmlns:xlink="http://www.w3.org/1999/xlink">
 <metadata>
  <rdf:RDF xmlns:cc="http://creativecommons.org/ns#" xmlns:dc="http://purl.org/dc/elements/1.1/" xmlns:rdf="http://www.w3.org/1999/02/22-rdf-syntax-ns#">
   <cc:Work>
    <dc:type rdf:resource="http://purl.org/dc/dcmitype/StillImage"/>
    <dc:date>2021-11-30T17:41:36.408778</dc:date>
    <dc:format>image/svg+xml</dc:format>
    <dc:creator>
     <cc:Agent>
      <dc:title>Matplotlib v3.4.3, https://matplotlib.org/</dc:title>
     </cc:Agent>
    </dc:creator>
   </cc:Work>
  </rdf:RDF>
 </metadata>
 <defs>
  <style type="text/css">*{stroke-linecap:butt;stroke-linejoin:round;}</style>
 </defs>
 <g id="figure_1">
  <g id="patch_1">
   <path d="M 0 432 
L 720 432 
L 720 0 
L 0 0 
z
" style="fill:none;"/>
  </g>
  <g id="axes_1">
   <g id="patch_2">
    <path d="M 90 378 
L 648 378 
L 648 51.84 
L 90 51.84 
z
" style="fill:#ffffff;"/>
   </g>
   <g id="matplotlib.axis_1">
    <g id="xtick_1">
     <g id="line2d_1">
      <defs>
       <path d="M 0 0 
L 0 3.5 
" id="m7093d4a493" style="stroke:#000000;stroke-width:0.8;"/>
      </defs>
      <g>
       <use style="stroke:#000000;stroke-width:0.8;" x="157.636364" xlink:href="#m7093d4a493" y="378"/>
      </g>
     </g>
     <g id="text_1">
      <!-- 0 -->
      <g transform="translate(154.455114 392.598437)scale(0.1 -0.1)">
       <defs>
        <path d="M 2034 4250 
Q 1547 4250 1301 3770 
Q 1056 3291 1056 2328 
Q 1056 1369 1301 889 
Q 1547 409 2034 409 
Q 2525 409 2770 889 
Q 3016 1369 3016 2328 
Q 3016 3291 2770 3770 
Q 2525 4250 2034 4250 
z
M 2034 4750 
Q 2819 4750 3233 4129 
Q 3647 3509 3647 2328 
Q 3647 1150 3233 529 
Q 2819 -91 2034 -91 
Q 1250 -91 836 529 
Q 422 1150 422 2328 
Q 422 3509 836 4129 
Q 1250 4750 2034 4750 
z
" id="DejaVuSans-30" transform="scale(0.015625)"/>
       </defs>
       <use xlink:href="#DejaVuSans-30"/>
      </g>
     </g>
    </g>
    <g id="xtick_2">
     <g id="line2d_2">
      <g>
       <use style="stroke:#000000;stroke-width:0.8;" x="242.181818" xlink:href="#m7093d4a493" y="378"/>
      </g>
     </g>
     <g id="text_2">
      <!-- 1 -->
      <g transform="translate(239.000568 392.598437)scale(0.1 -0.1)">
       <defs>
        <path d="M 794 531 
L 1825 531 
L 1825 4091 
L 703 3866 
L 703 4441 
L 1819 4666 
L 2450 4666 
L 2450 531 
L 3481 531 
L 3481 0 
L 794 0 
L 794 531 
z
" id="DejaVuSans-31" transform="scale(0.015625)"/>
       </defs>
       <use xlink:href="#DejaVuSans-31"/>
      </g>
     </g>
    </g>
    <g id="xtick_3">
     <g id="line2d_3">
      <g>
       <use style="stroke:#000000;stroke-width:0.8;" x="326.727273" xlink:href="#m7093d4a493" y="378"/>
      </g>
     </g>
     <g id="text_3">
      <!-- 2 -->
      <g transform="translate(323.546023 392.598437)scale(0.1 -0.1)">
       <defs>
        <path d="M 1228 531 
L 3431 531 
L 3431 0 
L 469 0 
L 469 531 
Q 828 903 1448 1529 
Q 2069 2156 2228 2338 
Q 2531 2678 2651 2914 
Q 2772 3150 2772 3378 
Q 2772 3750 2511 3984 
Q 2250 4219 1831 4219 
Q 1534 4219 1204 4116 
Q 875 4013 500 3803 
L 500 4441 
Q 881 4594 1212 4672 
Q 1544 4750 1819 4750 
Q 2544 4750 2975 4387 
Q 3406 4025 3406 3419 
Q 3406 3131 3298 2873 
Q 3191 2616 2906 2266 
Q 2828 2175 2409 1742 
Q 1991 1309 1228 531 
z
" id="DejaVuSans-32" transform="scale(0.015625)"/>
       </defs>
       <use xlink:href="#DejaVuSans-32"/>
      </g>
     </g>
    </g>
    <g id="xtick_4">
     <g id="line2d_4">
      <g>
       <use style="stroke:#000000;stroke-width:0.8;" x="411.272727" xlink:href="#m7093d4a493" y="378"/>
      </g>
     </g>
     <g id="text_4">
      <!-- 3 -->
      <g transform="translate(408.091477 392.598437)scale(0.1 -0.1)">
       <defs>
        <path d="M 2597 2516 
Q 3050 2419 3304 2112 
Q 3559 1806 3559 1356 
Q 3559 666 3084 287 
Q 2609 -91 1734 -91 
Q 1441 -91 1130 -33 
Q 819 25 488 141 
L 488 750 
Q 750 597 1062 519 
Q 1375 441 1716 441 
Q 2309 441 2620 675 
Q 2931 909 2931 1356 
Q 2931 1769 2642 2001 
Q 2353 2234 1838 2234 
L 1294 2234 
L 1294 2753 
L 1863 2753 
Q 2328 2753 2575 2939 
Q 2822 3125 2822 3475 
Q 2822 3834 2567 4026 
Q 2313 4219 1838 4219 
Q 1578 4219 1281 4162 
Q 984 4106 628 3988 
L 628 4550 
Q 988 4650 1302 4700 
Q 1616 4750 1894 4750 
Q 2613 4750 3031 4423 
Q 3450 4097 3450 3541 
Q 3450 3153 3228 2886 
Q 3006 2619 2597 2516 
z
" id="DejaVuSans-33" transform="scale(0.015625)"/>
       </defs>
       <use xlink:href="#DejaVuSans-33"/>
      </g>
     </g>
    </g>
    <g id="xtick_5">
     <g id="line2d_5">
      <g>
       <use style="stroke:#000000;stroke-width:0.8;" x="495.818182" xlink:href="#m7093d4a493" y="378"/>
      </g>
     </g>
     <g id="text_5">
      <!-- 4 -->
      <g transform="translate(492.636932 392.598437)scale(0.1 -0.1)">
       <defs>
        <path d="M 2419 4116 
L 825 1625 
L 2419 1625 
L 2419 4116 
z
M 2253 4666 
L 3047 4666 
L 3047 1625 
L 3713 1625 
L 3713 1100 
L 3047 1100 
L 3047 0 
L 2419 0 
L 2419 1100 
L 313 1100 
L 313 1709 
L 2253 4666 
z
" id="DejaVuSans-34" transform="scale(0.015625)"/>
       </defs>
       <use xlink:href="#DejaVuSans-34"/>
      </g>
     </g>
    </g>
    <g id="xtick_6">
     <g id="line2d_6">
      <g>
       <use style="stroke:#000000;stroke-width:0.8;" x="580.363636" xlink:href="#m7093d4a493" y="378"/>
      </g>
     </g>
     <g id="text_6">
      <!-- 5 -->
      <g transform="translate(577.182386 392.598437)scale(0.1 -0.1)">
       <defs>
        <path d="M 691 4666 
L 3169 4666 
L 3169 4134 
L 1269 4134 
L 1269 2991 
Q 1406 3038 1543 3061 
Q 1681 3084 1819 3084 
Q 2600 3084 3056 2656 
Q 3513 2228 3513 1497 
Q 3513 744 3044 326 
Q 2575 -91 1722 -91 
Q 1428 -91 1123 -41 
Q 819 9 494 109 
L 494 744 
Q 775 591 1075 516 
Q 1375 441 1709 441 
Q 2250 441 2565 725 
Q 2881 1009 2881 1497 
Q 2881 1984 2565 2268 
Q 2250 2553 1709 2553 
Q 1456 2553 1204 2497 
Q 953 2441 691 2322 
L 691 4666 
z
" id="DejaVuSans-35" transform="scale(0.015625)"/>
       </defs>
       <use xlink:href="#DejaVuSans-35"/>
      </g>
     </g>
    </g>
    <g id="text_7">
     <!-- Severity -->
     <g transform="translate(348.349219 406.276563)scale(0.1 -0.1)">
      <defs>
       <path d="M 3425 4513 
L 3425 3897 
Q 3066 4069 2747 4153 
Q 2428 4238 2131 4238 
Q 1616 4238 1336 4038 
Q 1056 3838 1056 3469 
Q 1056 3159 1242 3001 
Q 1428 2844 1947 2747 
L 2328 2669 
Q 3034 2534 3370 2195 
Q 3706 1856 3706 1288 
Q 3706 609 3251 259 
Q 2797 -91 1919 -91 
Q 1588 -91 1214 -16 
Q 841 59 441 206 
L 441 856 
Q 825 641 1194 531 
Q 1563 422 1919 422 
Q 2459 422 2753 634 
Q 3047 847 3047 1241 
Q 3047 1584 2836 1778 
Q 2625 1972 2144 2069 
L 1759 2144 
Q 1053 2284 737 2584 
Q 422 2884 422 3419 
Q 422 4038 858 4394 
Q 1294 4750 2059 4750 
Q 2388 4750 2728 4690 
Q 3069 4631 3425 4513 
z
" id="DejaVuSans-53" transform="scale(0.015625)"/>
       <path d="M 3597 1894 
L 3597 1613 
L 953 1613 
Q 991 1019 1311 708 
Q 1631 397 2203 397 
Q 2534 397 2845 478 
Q 3156 559 3463 722 
L 3463 178 
Q 3153 47 2828 -22 
Q 2503 -91 2169 -91 
Q 1331 -91 842 396 
Q 353 884 353 1716 
Q 353 2575 817 3079 
Q 1281 3584 2069 3584 
Q 2775 3584 3186 3129 
Q 3597 2675 3597 1894 
z
M 3022 2063 
Q 3016 2534 2758 2815 
Q 2500 3097 2075 3097 
Q 1594 3097 1305 2825 
Q 1016 2553 972 2059 
L 3022 2063 
z
" id="DejaVuSans-65" transform="scale(0.015625)"/>
       <path d="M 191 3500 
L 800 3500 
L 1894 563 
L 2988 3500 
L 3597 3500 
L 2284 0 
L 1503 0 
L 191 3500 
z
" id="DejaVuSans-76" transform="scale(0.015625)"/>
       <path d="M 2631 2963 
Q 2534 3019 2420 3045 
Q 2306 3072 2169 3072 
Q 1681 3072 1420 2755 
Q 1159 2438 1159 1844 
L 1159 0 
L 581 0 
L 581 3500 
L 1159 3500 
L 1159 2956 
Q 1341 3275 1631 3429 
Q 1922 3584 2338 3584 
Q 2397 3584 2469 3576 
Q 2541 3569 2628 3553 
L 2631 2963 
z
" id="DejaVuSans-72" transform="scale(0.015625)"/>
       <path d="M 603 3500 
L 1178 3500 
L 1178 0 
L 603 0 
L 603 3500 
z
M 603 4863 
L 1178 4863 
L 1178 4134 
L 603 4134 
L 603 4863 
z
" id="DejaVuSans-69" transform="scale(0.015625)"/>
       <path d="M 1172 4494 
L 1172 3500 
L 2356 3500 
L 2356 3053 
L 1172 3053 
L 1172 1153 
Q 1172 725 1289 603 
Q 1406 481 1766 481 
L 2356 481 
L 2356 0 
L 1766 0 
Q 1100 0 847 248 
Q 594 497 594 1153 
L 594 3053 
L 172 3053 
L 172 3500 
L 594 3500 
L 594 4494 
L 1172 4494 
z
" id="DejaVuSans-74" transform="scale(0.015625)"/>
       <path d="M 2059 -325 
Q 1816 -950 1584 -1140 
Q 1353 -1331 966 -1331 
L 506 -1331 
L 506 -850 
L 844 -850 
Q 1081 -850 1212 -737 
Q 1344 -625 1503 -206 
L 1606 56 
L 191 3500 
L 800 3500 
L 1894 763 
L 2988 3500 
L 3597 3500 
L 2059 -325 
z
" id="DejaVuSans-79" transform="scale(0.015625)"/>
      </defs>
      <use xlink:href="#DejaVuSans-53"/>
      <use x="63.476562" xlink:href="#DejaVuSans-65"/>
      <use x="125" xlink:href="#DejaVuSans-76"/>
      <use x="184.179688" xlink:href="#DejaVuSans-65"/>
      <use x="245.703125" xlink:href="#DejaVuSans-72"/>
      <use x="286.816406" xlink:href="#DejaVuSans-69"/>
      <use x="314.599609" xlink:href="#DejaVuSans-74"/>
      <use x="353.808594" xlink:href="#DejaVuSans-79"/>
     </g>
    </g>
   </g>
   <g id="matplotlib.axis_2">
    <g id="ytick_1">
     <g id="line2d_7">
      <defs>
       <path d="M 0 0 
L -3.5 0 
" id="mf88669c9b5" style="stroke:#000000;stroke-width:0.8;"/>
      </defs>
      <g>
       <use style="stroke:#000000;stroke-width:0.8;" x="90" xlink:href="#mf88669c9b5" y="363.174545"/>
      </g>
     </g>
     <g id="text_8">
      <!-- 0 -->
      <g transform="translate(76.6375 366.973764)scale(0.1 -0.1)">
       <use xlink:href="#DejaVuSans-30"/>
      </g>
     </g>
    </g>
    <g id="ytick_2">
     <g id="line2d_8">
      <g>
       <use style="stroke:#000000;stroke-width:0.8;" x="90" xlink:href="#mf88669c9b5" y="298.140513"/>
      </g>
     </g>
     <g id="text_9">
      <!-- 2 -->
      <g transform="translate(76.6375 301.939731)scale(0.1 -0.1)">
       <use xlink:href="#DejaVuSans-32"/>
      </g>
     </g>
    </g>
    <g id="ytick_3">
     <g id="line2d_9">
      <g>
       <use style="stroke:#000000;stroke-width:0.8;" x="90" xlink:href="#mf88669c9b5" y="233.10648"/>
      </g>
     </g>
     <g id="text_10">
      <!-- 4 -->
      <g transform="translate(76.6375 236.905699)scale(0.1 -0.1)">
       <use xlink:href="#DejaVuSans-34"/>
      </g>
     </g>
    </g>
    <g id="ytick_4">
     <g id="line2d_10">
      <g>
       <use style="stroke:#000000;stroke-width:0.8;" x="90" xlink:href="#mf88669c9b5" y="168.072447"/>
      </g>
     </g>
     <g id="text_11">
      <!-- 6 -->
      <g transform="translate(76.6375 171.871666)scale(0.1 -0.1)">
       <defs>
        <path d="M 2113 2584 
Q 1688 2584 1439 2293 
Q 1191 2003 1191 1497 
Q 1191 994 1439 701 
Q 1688 409 2113 409 
Q 2538 409 2786 701 
Q 3034 994 3034 1497 
Q 3034 2003 2786 2293 
Q 2538 2584 2113 2584 
z
M 3366 4563 
L 3366 3988 
Q 3128 4100 2886 4159 
Q 2644 4219 2406 4219 
Q 1781 4219 1451 3797 
Q 1122 3375 1075 2522 
Q 1259 2794 1537 2939 
Q 1816 3084 2150 3084 
Q 2853 3084 3261 2657 
Q 3669 2231 3669 1497 
Q 3669 778 3244 343 
Q 2819 -91 2113 -91 
Q 1303 -91 875 529 
Q 447 1150 447 2328 
Q 447 3434 972 4092 
Q 1497 4750 2381 4750 
Q 2619 4750 2861 4703 
Q 3103 4656 3366 4563 
z
" id="DejaVuSans-36" transform="scale(0.015625)"/>
       </defs>
       <use xlink:href="#DejaVuSans-36"/>
      </g>
     </g>
    </g>
    <g id="ytick_5">
     <g id="line2d_11">
      <g>
       <use style="stroke:#000000;stroke-width:0.8;" x="90" xlink:href="#mf88669c9b5" y="103.038414"/>
      </g>
     </g>
     <g id="text_12">
      <!-- 8 -->
      <g transform="translate(76.6375 106.837633)scale(0.1 -0.1)">
       <defs>
        <path d="M 2034 2216 
Q 1584 2216 1326 1975 
Q 1069 1734 1069 1313 
Q 1069 891 1326 650 
Q 1584 409 2034 409 
Q 2484 409 2743 651 
Q 3003 894 3003 1313 
Q 3003 1734 2745 1975 
Q 2488 2216 2034 2216 
z
M 1403 2484 
Q 997 2584 770 2862 
Q 544 3141 544 3541 
Q 544 4100 942 4425 
Q 1341 4750 2034 4750 
Q 2731 4750 3128 4425 
Q 3525 4100 3525 3541 
Q 3525 3141 3298 2862 
Q 3072 2584 2669 2484 
Q 3125 2378 3379 2068 
Q 3634 1759 3634 1313 
Q 3634 634 3220 271 
Q 2806 -91 2034 -91 
Q 1263 -91 848 271 
Q 434 634 434 1313 
Q 434 1759 690 2068 
Q 947 2378 1403 2484 
z
M 1172 3481 
Q 1172 3119 1398 2916 
Q 1625 2713 2034 2713 
Q 2441 2713 2670 2916 
Q 2900 3119 2900 3481 
Q 2900 3844 2670 4047 
Q 2441 4250 2034 4250 
Q 1625 4250 1398 4047 
Q 1172 3844 1172 3481 
z
" id="DejaVuSans-38" transform="scale(0.015625)"/>
       </defs>
       <use xlink:href="#DejaVuSans-38"/>
      </g>
     </g>
    </g>
    <g id="text_13">
     <!-- Density -->
     <g transform="translate(70.557812 233.928594)rotate(-90)scale(0.1 -0.1)">
      <defs>
       <path d="M 1259 4147 
L 1259 519 
L 2022 519 
Q 2988 519 3436 956 
Q 3884 1394 3884 2338 
Q 3884 3275 3436 3711 
Q 2988 4147 2022 4147 
L 1259 4147 
z
M 628 4666 
L 1925 4666 
Q 3281 4666 3915 4102 
Q 4550 3538 4550 2338 
Q 4550 1131 3912 565 
Q 3275 0 1925 0 
L 628 0 
L 628 4666 
z
" id="DejaVuSans-44" transform="scale(0.015625)"/>
       <path d="M 3513 2113 
L 3513 0 
L 2938 0 
L 2938 2094 
Q 2938 2591 2744 2837 
Q 2550 3084 2163 3084 
Q 1697 3084 1428 2787 
Q 1159 2491 1159 1978 
L 1159 0 
L 581 0 
L 581 3500 
L 1159 3500 
L 1159 2956 
Q 1366 3272 1645 3428 
Q 1925 3584 2291 3584 
Q 2894 3584 3203 3211 
Q 3513 2838 3513 2113 
z
" id="DejaVuSans-6e" transform="scale(0.015625)"/>
       <path d="M 2834 3397 
L 2834 2853 
Q 2591 2978 2328 3040 
Q 2066 3103 1784 3103 
Q 1356 3103 1142 2972 
Q 928 2841 928 2578 
Q 928 2378 1081 2264 
Q 1234 2150 1697 2047 
L 1894 2003 
Q 2506 1872 2764 1633 
Q 3022 1394 3022 966 
Q 3022 478 2636 193 
Q 2250 -91 1575 -91 
Q 1294 -91 989 -36 
Q 684 19 347 128 
L 347 722 
Q 666 556 975 473 
Q 1284 391 1588 391 
Q 1994 391 2212 530 
Q 2431 669 2431 922 
Q 2431 1156 2273 1281 
Q 2116 1406 1581 1522 
L 1381 1569 
Q 847 1681 609 1914 
Q 372 2147 372 2553 
Q 372 3047 722 3315 
Q 1072 3584 1716 3584 
Q 2034 3584 2315 3537 
Q 2597 3491 2834 3397 
z
" id="DejaVuSans-73" transform="scale(0.015625)"/>
      </defs>
      <use xlink:href="#DejaVuSans-44"/>
      <use x="77.001953" xlink:href="#DejaVuSans-65"/>
      <use x="138.525391" xlink:href="#DejaVuSans-6e"/>
      <use x="201.904297" xlink:href="#DejaVuSans-73"/>
      <use x="254.003906" xlink:href="#DejaVuSans-69"/>
      <use x="281.787109" xlink:href="#DejaVuSans-74"/>
      <use x="320.996094" xlink:href="#DejaVuSans-79"/>
     </g>
    </g>
   </g>
   <g id="line2d_12">
    <path clip-path="url(#p08063dd03c)" d="M 115.363636 363.174545 
L 233.168714 363.097999 
L 234.692056 362.859547 
L 235.707617 362.474894 
L 236.723178 361.790837 
L 237.738739 360.737876 
L 239.26208 358.59413 
L 240.277641 357.140198 
L 241.293202 356.095984 
L 241.800983 355.834507 
L 242.308763 355.781063 
L 242.816544 355.940237 
L 243.324324 356.298443 
L 244.339885 357.480447 
L 246.878788 361.036167 
L 247.894349 361.994959 
L 248.90991 362.595164 
L 249.925471 362.921156 
L 251.448812 363.115593 
L 254.495495 363.173088 
L 313.398034 363.161043 
L 314.921376 363.058089 
L 315.936937 362.750918 
L 316.444717 362.400993 
L 316.952498 361.802424 
L 317.460278 360.8103 
L 317.968059 359.217326 
L 318.475839 356.740488 
L 318.98362 353.012596 
L 319.4914 347.583814 
L 319.999181 339.938978 
L 320.506962 329.535986 
L 321.014742 315.868263 
L 321.522523 298.549989 
L 322.538084 252.627519 
L 324.061425 164.221206 
L 325.076986 108.565417 
L 325.584767 87.41451 
L 326.092547 73.048975 
L 326.600328 66.665455 
L 327.108108 68.80875 
L 327.615889 79.295066 
L 328.123669 97.238025 
L 329.13923 149.251329 
L 331.170352 265.454042 
L 332.185913 307.682142 
L 332.693694 323.138291 
L 333.201474 335.115644 
L 333.709255 344.072265 
L 334.217035 350.541818 
L 334.724816 355.059213 
L 335.232596 358.110322 
L 335.740377 360.104699 
L 336.248157 361.366881 
L 336.755938 362.140555 
L 337.263718 362.600016 
L 338.279279 363.011955 
L 339.802621 363.154855 
L 345.895987 363.174545 
L 400.736282 363.101157 
L 401.751843 362.943639 
L 402.767404 362.527655 
L 403.275184 362.137914 
L 403.782965 361.560873 
L 404.290745 360.734469 
L 404.798526 359.590374 
L 405.306306 358.060418 
L 405.814087 356.086089 
L 406.829648 350.69198 
L 407.845209 343.602091 
L 409.36855 332.26181 
L 409.876331 329.2045 
L 410.384111 326.912513 
L 410.891892 325.573018 
L 411.399672 325.299239 
L 411.907453 326.114653 
L 412.415233 327.94967 
L 412.923014 330.651432 
L 413.938575 337.760759 
L 415.461916 349.053553 
L 416.477477 354.919571 
L 417.493038 358.877643 
L 418.000819 360.206494 
L 418.5086 361.183026 
L 419.01638 361.876484 
L 419.524161 362.352676 
L 420.539722 362.872543 
L 421.555283 363.075734 
L 423.586405 363.167078 
L 438.81982 363.174545 
L 485.535627 363.107168 
L 486.551188 362.968617 
L 487.566749 362.614133 
L 488.074529 362.289429 
L 488.58231 361.816577 
L 489.09009 361.150704 
L 489.597871 360.244593 
L 490.105651 359.05412 
L 491.121212 355.704954 
L 492.136773 351.117497 
L 494.167895 340.997833 
L 494.675676 339.155567 
L 495.183456 337.904314 
L 495.691237 337.348303 
L 496.199017 337.534987 
L 496.706798 338.448355 
L 497.214578 340.011205 
L 498.230139 344.541617 
L 500.261261 354.662991 
L 501.276822 358.341101 
L 502.292383 360.730587 
L 502.800164 361.510717 
L 503.307944 362.074222 
L 504.323505 362.733446 
L 505.339066 363.017096 
L 506.862408 363.147535 
L 511.940213 363.174534 
L 622.636364 363.174545 
L 622.636364 363.174545 
" style="fill:none;stroke:#808080;stroke-linecap:square;stroke-width:1.5;"/>
   </g>
   <g id="line2d_13">
    <path clip-path="url(#p08063dd03c)" d="M 115.363636 363.174545 
L 219.45864 363.076386 
L 224.028665 362.830533 
L 227.583129 362.422942 
L 231.137592 361.788645 
L 239.26208 360.206289 
L 241.800983 360.034519 
L 244.339885 360.12821 
L 246.878788 360.464138 
L 250.433251 361.184571 
L 256.018837 362.305314 
L 259.573301 362.761966 
L 263.635545 363.031512 
L 269.22113 363.151333 
L 285.977887 363.173325 
L 295.117936 363.071794 
L 298.164619 362.822758 
L 300.195741 362.428888 
L 301.719083 361.911419 
L 303.242424 361.100478 
L 304.257985 360.33735 
L 305.273546 359.34681 
L 306.289107 358.081466 
L 307.304668 356.491029 
L 308.320229 354.524555 
L 309.33579 352.133449 
L 310.351351 349.275185 
L 311.366912 345.91762 
L 312.890254 339.912917 
L 314.413595 332.780724 
L 316.444717 321.813014 
L 321.522523 293.048391 
L 322.538084 288.410166 
L 323.553645 284.56135 
L 324.569206 281.651165 
L 325.076986 280.585909 
L 325.584767 279.795885 
L 326.092547 279.289212 
L 326.600328 279.071125 
L 327.108108 279.143883 
L 327.615889 279.506733 
L 328.123669 280.155919 
L 328.63145 281.08475 
L 329.647011 283.740634 
L 330.662572 287.367647 
L 331.678133 291.823964 
L 333.201474 299.691981 
L 335.740377 314.420264 
L 338.279279 328.835865 
L 339.802621 336.48113 
L 341.325962 343.060788 
L 342.849304 348.483565 
L 343.864865 351.464147 
L 344.880426 353.968384 
L 345.895987 356.036629 
L 346.911548 357.716333 
L 347.927109 359.058167 
L 348.94267 360.11282 
L 349.958231 360.928579 
L 351.481572 361.79961 
L 353.004914 362.358658 
L 355.036036 362.78695 
L 357.574939 363.033134 
L 361.637183 363.151011 
L 374.839476 363.171341 
L 382.963964 363.065567 
L 386.010647 362.848561 
L 388.54955 362.435965 
L 390.580672 361.839501 
L 392.104013 361.167614 
L 393.627355 360.250137 
L 395.150696 359.043957 
L 396.674038 357.519263 
L 398.197379 355.669294 
L 400.228501 352.746629 
L 403.275184 347.780916 
L 405.814087 343.812655 
L 407.337428 341.860306 
L 408.352989 340.840518 
L 409.36855 340.093776 
L 410.384111 339.650093 
L 411.399672 339.527615 
L 412.415233 339.731393 
L 413.430794 340.253032 
L 414.446355 341.071274 
L 415.461916 342.153426 
L 416.985258 344.177829 
L 419.01638 347.362315 
L 423.078624 353.896543 
L 425.109746 356.634192 
L 426.633088 358.322504 
L 428.156429 359.685422 
L 429.679771 360.742472 
L 431.203112 361.531288 
L 432.726454 362.098321 
L 434.757576 362.591391 
L 437.296478 362.923758 
L 440.850942 363.108004 
L 447.959869 363.171726 
L 467.763309 363.09247 
L 471.317772 362.8869 
L 473.856675 362.539533 
L 475.887797 362.050305 
L 477.918919 361.291414 
L 479.44226 360.500864 
L 480.965602 359.494888 
L 482.488943 358.265765 
L 484.520066 356.306821 
L 487.566749 352.930609 
L 490.105651 350.177868 
L 491.628993 348.792865 
L 493.152334 347.748469 
L 494.167895 347.28779 
L 495.183456 347.038358 
L 496.199017 347.010402 
L 497.214578 347.205077 
L 498.230139 347.61438 
L 499.2457 348.221695 
L 500.769042 349.449543 
L 502.800164 351.510532 
L 508.385749 357.570749 
L 510.416871 359.305462 
L 511.940213 360.348588 
L 513.463554 361.1738 
L 515.494676 361.971789 
L 517.525799 362.490465 
L 520.064701 362.86198 
L 523.111384 363.065621 
L 528.69697 363.163137 
L 555.609337 363.174545 
L 622.636364 363.174545 
L 622.636364 363.174545 
" style="fill:none;stroke:#ffa500;stroke-linecap:square;stroke-width:1.5;"/>
   </g>
   <g id="line2d_14">
    <path clip-path="url(#p08063dd03c)" d="M 115.363636 363.174545 
L 230.122031 363.071198 
L 231.645373 362.860233 
L 232.660934 362.567505 
L 233.676495 362.077748 
L 234.692056 361.320641 
L 235.707617 360.24297 
L 236.723178 358.837767 
L 238.7543 355.403896 
L 239.769861 353.76256 
L 240.785422 352.509623 
L 241.293202 352.102175 
L 241.800983 351.869125 
L 242.308763 351.82193 
L 242.816544 351.962928 
L 243.324324 352.28515 
L 244.339885 353.402979 
L 245.355446 354.971462 
L 247.894349 359.21756 
L 248.90991 360.543905 
L 249.925471 361.538441 
L 250.941032 362.222598 
L 251.956593 362.656381 
L 253.479934 362.990903 
L 255.511057 363.13807 
L 261.096642 363.174437 
L 311.366912 363.068717 
L 312.382473 362.894029 
L 313.398034 362.478933 
L 313.905815 362.106188 
L 314.413595 361.560823 
L 314.921376 360.777345 
L 315.429156 359.672329 
L 315.936937 358.142498 
L 316.444717 356.063892 
L 316.952498 353.292712 
L 317.460278 349.668486 
L 317.968059 345.020102 
L 318.475839 339.175148 
L 319.4914 323.278984 
L 320.506962 301.130319 
L 321.522523 272.907188 
L 325.076986 164.806197 
L 325.584767 155.504554 
L 326.092547 149.359506 
L 326.600328 146.67056 
L 327.108108 147.570612 
L 327.615889 152.015055 
L 328.123669 159.785448 
L 328.63145 170.507307 
L 329.647011 198.715525 
L 332.693694 294.606379 
L 333.709255 318.343115 
L 334.724816 335.752792 
L 335.740377 347.483192 
L 336.248157 351.597768 
L 336.755938 354.774568 
L 337.263718 357.180339 
L 337.771499 358.967779 
L 338.279279 360.271002 
L 338.78706 361.203615 
L 339.29484 361.858783 
L 340.310401 362.616745 
L 341.325962 362.953321 
L 342.849304 363.125783 
L 346.403767 363.173747 
L 397.181818 363.120765 
L 398.70516 362.974778 
L 399.720721 362.733712 
L 400.736282 362.264468 
L 401.751843 361.416888 
L 402.767404 359.998822 
L 403.782965 357.806653 
L 404.798526 354.68631 
L 405.814087 350.617611 
L 407.337428 343.235401 
L 408.86077 335.922591 
L 409.876331 332.294772 
L 410.384111 331.115024 
L 410.891892 330.440242 
L 411.399672 330.30359 
L 411.907453 330.711842 
L 412.415233 331.644821 
L 412.923014 333.057053 
L 413.938575 337.034551 
L 417.493038 353.754613 
L 418.5086 357.117358 
L 419.524161 359.530811 
L 420.539722 361.123973 
L 421.555283 362.094963 
L 422.570844 362.642818 
L 423.586405 362.92954 
L 425.109746 363.106917 
L 428.66421 363.172673 
L 481.473382 363.151297 
L 484.012285 362.97587 
L 485.027846 362.757499 
L 486.043407 362.355558 
L 487.058968 361.669939 
L 488.074529 360.588591 
L 489.09009 359.016671 
L 490.105651 356.920307 
L 491.628993 352.992088 
L 493.152334 348.905365 
L 494.167895 346.734146 
L 494.675676 345.963244 
L 495.183456 345.453953 
L 495.691237 345.231099 
L 496.199017 345.305693 
L 496.706798 345.67404 
L 497.214578 346.318036 
L 498.230139 348.298373 
L 499.753481 352.290256 
L 501.276822 356.320023 
L 502.292383 358.541026 
L 503.307944 360.244345 
L 504.323505 361.440996 
L 505.339066 362.215084 
L 506.354627 362.677757 
L 507.877969 363.011198 
L 509.909091 363.145188 
L 516.002457 363.174511 
L 622.636364 363.174545 
L 622.636364 363.174545 
" style="fill:none;stroke:#ffff00;stroke-linecap:square;stroke-width:1.5;"/>
   </g>
   <g id="line2d_15">
    <path clip-path="url(#p08063dd03c)" d="M 115.363636 363.174545 
L 208.287469 363.067085 
L 214.380835 362.815822 
L 218.95086 362.416788 
L 223.013104 361.858159 
L 228.090909 360.912151 
L 235.707617 359.436041 
L 238.7543 359.056339 
L 241.800983 358.900237 
L 244.847666 358.994594 
L 247.894349 359.323096 
L 251.956593 360.0267 
L 262.619984 362.054063 
L 266.682228 362.550092 
L 271.252252 362.887227 
L 276.837838 363.065656 
L 282.931204 363.041484 
L 286.993448 362.834563 
L 290.040131 362.468919 
L 292.579034 361.922136 
L 294.610156 361.247514 
L 296.641278 360.285642 
L 298.164619 359.327557 
L 299.687961 358.127227 
L 301.211302 356.650093 
L 302.734644 354.865193 
L 304.257985 352.748287 
L 305.781327 350.285308 
L 307.304668 347.475866 
L 309.33579 343.222347 
L 311.874693 337.233193 
L 318.98362 319.754759 
L 320.506962 316.689825 
L 322.030303 314.143668 
L 323.045864 312.787524 
L 324.061425 311.735226 
L 325.076986 311.007138 
L 326.092547 310.617517 
L 327.108108 310.574047 
L 328.123669 310.877587 
L 329.13923 311.522144 
L 330.154791 312.49507 
L 331.170352 313.777472 
L 332.185913 315.344826 
L 333.709255 318.16477 
L 335.232596 321.444126 
L 337.771499 327.584094 
L 343.357084 341.493687 
L 345.388206 345.945638 
L 347.419328 349.84088 
L 348.94267 352.361974 
L 350.466011 354.535869 
L 351.989353 356.374581 
L 353.512695 357.900879 
L 355.036036 359.144798 
L 356.559378 360.14044 
L 358.082719 360.92323 
L 360.113841 361.695262 
L 362.144963 362.224713 
L 364.683866 362.640128 
L 367.730549 362.896796 
L 371.792793 362.984572 
L 375.855037 362.855036 
L 379.4095 362.528824 
L 382.456183 362.016914 
L 384.995086 361.364615 
L 387.533989 360.456087 
L 390.072891 359.255659 
L 392.611794 357.753502 
L 395.150696 355.979086 
L 399.21294 352.787769 
L 402.767404 350.044249 
L 404.798526 348.698707 
L 406.829648 347.63197 
L 408.352989 347.062817 
L 409.876331 346.719534 
L 411.399672 346.617183 
L 412.923014 346.760297 
L 414.446355 347.142543 
L 415.969697 347.747192 
L 418.000819 348.85346 
L 420.031941 350.227506 
L 423.078624 352.583992 
L 428.156429 356.536358 
L 430.695332 358.235008 
L 433.234234 359.647805 
L 435.773137 360.758409 
L 438.312039 361.586105 
L 440.850942 362.172049 
L 443.897625 362.626523 
L 447.452088 362.917594 
L 452.022113 363.063242 
L 457.607699 363.024466 
L 462.177723 362.78894 
L 465.732187 362.38453 
L 468.77887 361.795888 
L 471.317772 361.077619 
L 473.856675 360.113786 
L 476.395577 358.887674 
L 478.93448 357.413475 
L 482.488943 355.045272 
L 487.566749 351.622666 
L 489.597871 350.480922 
L 491.628993 349.590516 
L 493.152334 349.127966 
L 494.675676 348.864222 
L 496.199017 348.810882 
L 497.722359 348.970309 
L 499.2457 349.335457 
L 500.769042 349.89039 
L 502.800164 350.883687 
L 505.339066 352.428844 
L 514.986896 358.750876 
L 517.525799 360.003076 
L 520.064701 360.992894 
L 522.603604 361.734563 
L 525.142506 362.262585 
L 528.189189 362.675408 
L 532.251433 362.970842 
L 537.837019 363.124568 
L 550.023751 363.173382 
L 622.636364 363.174545 
L 622.636364 363.174545 
" style="fill:none;stroke:#ff0000;stroke-linecap:square;stroke-width:1.5;"/>
   </g>
   <g id="patch_3">
    <path d="M 90 378 
L 90 51.84 
" style="fill:none;stroke:#000000;stroke-linecap:square;stroke-linejoin:miter;stroke-width:0.8;"/>
   </g>
   <g id="patch_4">
    <path d="M 648 378 
L 648 51.84 
" style="fill:none;stroke:#000000;stroke-linecap:square;stroke-linejoin:miter;stroke-width:0.8;"/>
   </g>
   <g id="patch_5">
    <path d="M 90 378 
L 648 378 
" style="fill:none;stroke:#000000;stroke-linecap:square;stroke-linejoin:miter;stroke-width:0.8;"/>
   </g>
   <g id="patch_6">
    <path d="M 90 51.84 
L 648 51.84 
" style="fill:none;stroke:#000000;stroke-linecap:square;stroke-linejoin:miter;stroke-width:0.8;"/>
   </g>
   <g id="text_14">
    <!-- KdePlot of Severity -->
    <g transform="translate(311.878125 45.84)scale(0.12 -0.12)">
     <defs>
      <path d="M 628 4666 
L 1259 4666 
L 1259 2694 
L 3353 4666 
L 4166 4666 
L 1850 2491 
L 4331 0 
L 3500 0 
L 1259 2247 
L 1259 0 
L 628 0 
L 628 4666 
z
" id="DejaVuSans-4b" transform="scale(0.015625)"/>
      <path d="M 2906 2969 
L 2906 4863 
L 3481 4863 
L 3481 0 
L 2906 0 
L 2906 525 
Q 2725 213 2448 61 
Q 2172 -91 1784 -91 
Q 1150 -91 751 415 
Q 353 922 353 1747 
Q 353 2572 751 3078 
Q 1150 3584 1784 3584 
Q 2172 3584 2448 3432 
Q 2725 3281 2906 2969 
z
M 947 1747 
Q 947 1113 1208 752 
Q 1469 391 1925 391 
Q 2381 391 2643 752 
Q 2906 1113 2906 1747 
Q 2906 2381 2643 2742 
Q 2381 3103 1925 3103 
Q 1469 3103 1208 2742 
Q 947 2381 947 1747 
z
" id="DejaVuSans-64" transform="scale(0.015625)"/>
      <path d="M 1259 4147 
L 1259 2394 
L 2053 2394 
Q 2494 2394 2734 2622 
Q 2975 2850 2975 3272 
Q 2975 3691 2734 3919 
Q 2494 4147 2053 4147 
L 1259 4147 
z
M 628 4666 
L 2053 4666 
Q 2838 4666 3239 4311 
Q 3641 3956 3641 3272 
Q 3641 2581 3239 2228 
Q 2838 1875 2053 1875 
L 1259 1875 
L 1259 0 
L 628 0 
L 628 4666 
z
" id="DejaVuSans-50" transform="scale(0.015625)"/>
      <path d="M 603 4863 
L 1178 4863 
L 1178 0 
L 603 0 
L 603 4863 
z
" id="DejaVuSans-6c" transform="scale(0.015625)"/>
      <path d="M 1959 3097 
Q 1497 3097 1228 2736 
Q 959 2375 959 1747 
Q 959 1119 1226 758 
Q 1494 397 1959 397 
Q 2419 397 2687 759 
Q 2956 1122 2956 1747 
Q 2956 2369 2687 2733 
Q 2419 3097 1959 3097 
z
M 1959 3584 
Q 2709 3584 3137 3096 
Q 3566 2609 3566 1747 
Q 3566 888 3137 398 
Q 2709 -91 1959 -91 
Q 1206 -91 779 398 
Q 353 888 353 1747 
Q 353 2609 779 3096 
Q 1206 3584 1959 3584 
z
" id="DejaVuSans-6f" transform="scale(0.015625)"/>
      <path id="DejaVuSans-20" transform="scale(0.015625)"/>
      <path d="M 2375 4863 
L 2375 4384 
L 1825 4384 
Q 1516 4384 1395 4259 
Q 1275 4134 1275 3809 
L 1275 3500 
L 2222 3500 
L 2222 3053 
L 1275 3053 
L 1275 0 
L 697 0 
L 697 3053 
L 147 3053 
L 147 3500 
L 697 3500 
L 697 3744 
Q 697 4328 969 4595 
Q 1241 4863 1831 4863 
L 2375 4863 
z
" id="DejaVuSans-66" transform="scale(0.015625)"/>
     </defs>
     <use xlink:href="#DejaVuSans-4b"/>
     <use x="65.576172" xlink:href="#DejaVuSans-64"/>
     <use x="129.052734" xlink:href="#DejaVuSans-65"/>
     <use x="190.576172" xlink:href="#DejaVuSans-50"/>
     <use x="250.878906" xlink:href="#DejaVuSans-6c"/>
     <use x="278.662109" xlink:href="#DejaVuSans-6f"/>
     <use x="339.84375" xlink:href="#DejaVuSans-74"/>
     <use x="379.052734" xlink:href="#DejaVuSans-20"/>
     <use x="410.839844" xlink:href="#DejaVuSans-6f"/>
     <use x="472.021484" xlink:href="#DejaVuSans-66"/>
     <use x="507.226562" xlink:href="#DejaVuSans-20"/>
     <use x="539.013672" xlink:href="#DejaVuSans-53"/>
     <use x="602.490234" xlink:href="#DejaVuSans-65"/>
     <use x="664.013672" xlink:href="#DejaVuSans-76"/>
     <use x="723.193359" xlink:href="#DejaVuSans-65"/>
     <use x="784.716797" xlink:href="#DejaVuSans-72"/>
     <use x="825.830078" xlink:href="#DejaVuSans-69"/>
     <use x="853.613281" xlink:href="#DejaVuSans-74"/>
     <use x="892.822266" xlink:href="#DejaVuSans-79"/>
    </g>
   </g>
   <g id="legend_1">
    <g id="patch_7">
     <path d="M 439.6625 118.5525 
L 641 118.5525 
Q 643 118.5525 643 116.5525 
L 643 58.84 
Q 643 56.84 641 56.84 
L 439.6625 56.84 
Q 437.6625 56.84 437.6625 58.84 
L 437.6625 116.5525 
Q 437.6625 118.5525 439.6625 118.5525 
z
" style="fill:#ffffff;opacity:0.8;stroke:#cccccc;stroke-linejoin:miter;"/>
    </g>
    <g id="line2d_16">
     <path d="M 441.6625 64.938438 
L 461.6625 64.938438 
" style="fill:none;stroke:#808080;stroke-linecap:square;stroke-width:1.5;"/>
    </g>
    <g id="line2d_17"/>
    <g id="text_15">
     <!-- US Accidents -->
     <g transform="translate(469.6625 68.438438)scale(0.1 -0.1)">
      <defs>
       <path d="M 556 4666 
L 1191 4666 
L 1191 1831 
Q 1191 1081 1462 751 
Q 1734 422 2344 422 
Q 2950 422 3222 751 
Q 3494 1081 3494 1831 
L 3494 4666 
L 4128 4666 
L 4128 1753 
Q 4128 841 3676 375 
Q 3225 -91 2344 -91 
Q 1459 -91 1007 375 
Q 556 841 556 1753 
L 556 4666 
z
" id="DejaVuSans-55" transform="scale(0.015625)"/>
       <path d="M 2188 4044 
L 1331 1722 
L 3047 1722 
L 2188 4044 
z
M 1831 4666 
L 2547 4666 
L 4325 0 
L 3669 0 
L 3244 1197 
L 1141 1197 
L 716 0 
L 50 0 
L 1831 4666 
z
" id="DejaVuSans-41" transform="scale(0.015625)"/>
       <path d="M 3122 3366 
L 3122 2828 
Q 2878 2963 2633 3030 
Q 2388 3097 2138 3097 
Q 1578 3097 1268 2742 
Q 959 2388 959 1747 
Q 959 1106 1268 751 
Q 1578 397 2138 397 
Q 2388 397 2633 464 
Q 2878 531 3122 666 
L 3122 134 
Q 2881 22 2623 -34 
Q 2366 -91 2075 -91 
Q 1284 -91 818 406 
Q 353 903 353 1747 
Q 353 2603 823 3093 
Q 1294 3584 2113 3584 
Q 2378 3584 2631 3529 
Q 2884 3475 3122 3366 
z
" id="DejaVuSans-63" transform="scale(0.015625)"/>
      </defs>
      <use xlink:href="#DejaVuSans-55"/>
      <use x="73.193359" xlink:href="#DejaVuSans-53"/>
      <use x="136.669922" xlink:href="#DejaVuSans-20"/>
      <use x="168.457031" xlink:href="#DejaVuSans-41"/>
      <use x="235.115234" xlink:href="#DejaVuSans-63"/>
      <use x="290.095703" xlink:href="#DejaVuSans-63"/>
      <use x="345.076172" xlink:href="#DejaVuSans-69"/>
      <use x="372.859375" xlink:href="#DejaVuSans-64"/>
      <use x="436.335938" xlink:href="#DejaVuSans-65"/>
      <use x="497.859375" xlink:href="#DejaVuSans-6e"/>
      <use x="561.238281" xlink:href="#DejaVuSans-74"/>
      <use x="600.447266" xlink:href="#DejaVuSans-73"/>
     </g>
    </g>
    <g id="line2d_18">
     <path d="M 441.6625 79.616563 
L 461.6625 79.616563 
" style="fill:none;stroke:#ffa500;stroke-linecap:square;stroke-width:1.5;"/>
    </g>
    <g id="line2d_19"/>
    <g id="text_16">
     <!-- WA Accidents -->
     <g transform="translate(469.6625 83.116563)scale(0.1 -0.1)">
      <defs>
       <path d="M 213 4666 
L 850 4666 
L 1831 722 
L 2809 4666 
L 3519 4666 
L 4500 722 
L 5478 4666 
L 6119 4666 
L 4947 0 
L 4153 0 
L 3169 4050 
L 2175 0 
L 1381 0 
L 213 4666 
z
" id="DejaVuSans-57" transform="scale(0.015625)"/>
      </defs>
      <use xlink:href="#DejaVuSans-57"/>
      <use x="93.376953" xlink:href="#DejaVuSans-41"/>
      <use x="161.785156" xlink:href="#DejaVuSans-20"/>
      <use x="193.572266" xlink:href="#DejaVuSans-41"/>
      <use x="260.230469" xlink:href="#DejaVuSans-63"/>
      <use x="315.210938" xlink:href="#DejaVuSans-63"/>
      <use x="370.191406" xlink:href="#DejaVuSans-69"/>
      <use x="397.974609" xlink:href="#DejaVuSans-64"/>
      <use x="461.451172" xlink:href="#DejaVuSans-65"/>
      <use x="522.974609" xlink:href="#DejaVuSans-6e"/>
      <use x="586.353516" xlink:href="#DejaVuSans-74"/>
      <use x="625.5625" xlink:href="#DejaVuSans-73"/>
     </g>
    </g>
    <g id="line2d_20">
     <path d="M 441.6625 94.294688 
L 461.6625 94.294688 
" style="fill:none;stroke:#ffff00;stroke-linecap:square;stroke-width:1.5;"/>
    </g>
    <g id="line2d_21"/>
    <g id="text_17">
     <!-- US Accident Traffic Sign Presence -->
     <g transform="translate(469.6625 97.794688)scale(0.1 -0.1)">
      <defs>
       <path d="M -19 4666 
L 3928 4666 
L 3928 4134 
L 2272 4134 
L 2272 0 
L 1638 0 
L 1638 4134 
L -19 4134 
L -19 4666 
z
" id="DejaVuSans-54" transform="scale(0.015625)"/>
       <path d="M 2194 1759 
Q 1497 1759 1228 1600 
Q 959 1441 959 1056 
Q 959 750 1161 570 
Q 1363 391 1709 391 
Q 2188 391 2477 730 
Q 2766 1069 2766 1631 
L 2766 1759 
L 2194 1759 
z
M 3341 1997 
L 3341 0 
L 2766 0 
L 2766 531 
Q 2569 213 2275 61 
Q 1981 -91 1556 -91 
Q 1019 -91 701 211 
Q 384 513 384 1019 
Q 384 1609 779 1909 
Q 1175 2209 1959 2209 
L 2766 2209 
L 2766 2266 
Q 2766 2663 2505 2880 
Q 2244 3097 1772 3097 
Q 1472 3097 1187 3025 
Q 903 2953 641 2809 
L 641 3341 
Q 956 3463 1253 3523 
Q 1550 3584 1831 3584 
Q 2591 3584 2966 3190 
Q 3341 2797 3341 1997 
z
" id="DejaVuSans-61" transform="scale(0.015625)"/>
       <path d="M 2906 1791 
Q 2906 2416 2648 2759 
Q 2391 3103 1925 3103 
Q 1463 3103 1205 2759 
Q 947 2416 947 1791 
Q 947 1169 1205 825 
Q 1463 481 1925 481 
Q 2391 481 2648 825 
Q 2906 1169 2906 1791 
z
M 3481 434 
Q 3481 -459 3084 -895 
Q 2688 -1331 1869 -1331 
Q 1566 -1331 1297 -1286 
Q 1028 -1241 775 -1147 
L 775 -588 
Q 1028 -725 1275 -790 
Q 1522 -856 1778 -856 
Q 2344 -856 2625 -561 
Q 2906 -266 2906 331 
L 2906 616 
Q 2728 306 2450 153 
Q 2172 0 1784 0 
Q 1141 0 747 490 
Q 353 981 353 1791 
Q 353 2603 747 3093 
Q 1141 3584 1784 3584 
Q 2172 3584 2450 3431 
Q 2728 3278 2906 2969 
L 2906 3500 
L 3481 3500 
L 3481 434 
z
" id="DejaVuSans-67" transform="scale(0.015625)"/>
      </defs>
      <use xlink:href="#DejaVuSans-55"/>
      <use x="73.193359" xlink:href="#DejaVuSans-53"/>
      <use x="136.669922" xlink:href="#DejaVuSans-20"/>
      <use x="168.457031" xlink:href="#DejaVuSans-41"/>
      <use x="235.115234" xlink:href="#DejaVuSans-63"/>
      <use x="290.095703" xlink:href="#DejaVuSans-63"/>
      <use x="345.076172" xlink:href="#DejaVuSans-69"/>
      <use x="372.859375" xlink:href="#DejaVuSans-64"/>
      <use x="436.335938" xlink:href="#DejaVuSans-65"/>
      <use x="497.859375" xlink:href="#DejaVuSans-6e"/>
      <use x="561.238281" xlink:href="#DejaVuSans-74"/>
      <use x="600.447266" xlink:href="#DejaVuSans-20"/>
      <use x="632.234375" xlink:href="#DejaVuSans-54"/>
      <use x="678.568359" xlink:href="#DejaVuSans-72"/>
      <use x="719.681641" xlink:href="#DejaVuSans-61"/>
      <use x="780.960938" xlink:href="#DejaVuSans-66"/>
      <use x="816.166016" xlink:href="#DejaVuSans-66"/>
      <use x="851.371094" xlink:href="#DejaVuSans-69"/>
      <use x="879.154297" xlink:href="#DejaVuSans-63"/>
      <use x="934.134766" xlink:href="#DejaVuSans-20"/>
      <use x="965.921875" xlink:href="#DejaVuSans-53"/>
      <use x="1029.398438" xlink:href="#DejaVuSans-69"/>
      <use x="1057.181641" xlink:href="#DejaVuSans-67"/>
      <use x="1120.658203" xlink:href="#DejaVuSans-6e"/>
      <use x="1184.037109" xlink:href="#DejaVuSans-20"/>
      <use x="1215.824219" xlink:href="#DejaVuSans-50"/>
      <use x="1274.376953" xlink:href="#DejaVuSans-72"/>
      <use x="1313.240234" xlink:href="#DejaVuSans-65"/>
      <use x="1374.763672" xlink:href="#DejaVuSans-73"/>
      <use x="1426.863281" xlink:href="#DejaVuSans-65"/>
      <use x="1488.386719" xlink:href="#DejaVuSans-6e"/>
      <use x="1551.765625" xlink:href="#DejaVuSans-63"/>
      <use x="1606.746094" xlink:href="#DejaVuSans-65"/>
     </g>
    </g>
    <g id="line2d_22">
     <path d="M 441.6625 108.972813 
L 461.6625 108.972813 
" style="fill:none;stroke:#ff0000;stroke-linecap:square;stroke-width:1.5;"/>
    </g>
    <g id="line2d_23"/>
    <g id="text_18">
     <!-- WA Accident Traffic Sign Presence -->
     <g transform="translate(469.6625 112.472813)scale(0.1 -0.1)">
      <use xlink:href="#DejaVuSans-57"/>
      <use x="93.376953" xlink:href="#DejaVuSans-41"/>
      <use x="161.785156" xlink:href="#DejaVuSans-20"/>
      <use x="193.572266" xlink:href="#DejaVuSans-41"/>
      <use x="260.230469" xlink:href="#DejaVuSans-63"/>
      <use x="315.210938" xlink:href="#DejaVuSans-63"/>
      <use x="370.191406" xlink:href="#DejaVuSans-69"/>
      <use x="397.974609" xlink:href="#DejaVuSans-64"/>
      <use x="461.451172" xlink:href="#DejaVuSans-65"/>
      <use x="522.974609" xlink:href="#DejaVuSans-6e"/>
      <use x="586.353516" xlink:href="#DejaVuSans-74"/>
      <use x="625.5625" xlink:href="#DejaVuSans-20"/>
      <use x="657.349609" xlink:href="#DejaVuSans-54"/>
      <use x="703.683594" xlink:href="#DejaVuSans-72"/>
      <use x="744.796875" xlink:href="#DejaVuSans-61"/>
      <use x="806.076172" xlink:href="#DejaVuSans-66"/>
      <use x="841.28125" xlink:href="#DejaVuSans-66"/>
      <use x="876.486328" xlink:href="#DejaVuSans-69"/>
      <use x="904.269531" xlink:href="#DejaVuSans-63"/>
      <use x="959.25" xlink:href="#DejaVuSans-20"/>
      <use x="991.037109" xlink:href="#DejaVuSans-53"/>
      <use x="1054.513672" xlink:href="#DejaVuSans-69"/>
      <use x="1082.296875" xlink:href="#DejaVuSans-67"/>
      <use x="1145.773438" xlink:href="#DejaVuSans-6e"/>
      <use x="1209.152344" xlink:href="#DejaVuSans-20"/>
      <use x="1240.939453" xlink:href="#DejaVuSans-50"/>
      <use x="1299.492188" xlink:href="#DejaVuSans-72"/>
      <use x="1338.355469" xlink:href="#DejaVuSans-65"/>
      <use x="1399.878906" xlink:href="#DejaVuSans-73"/>
      <use x="1451.978516" xlink:href="#DejaVuSans-65"/>
      <use x="1513.501953" xlink:href="#DejaVuSans-6e"/>
      <use x="1576.880859" xlink:href="#DejaVuSans-63"/>
      <use x="1631.861328" xlink:href="#DejaVuSans-65"/>
     </g>
    </g>
   </g>
  </g>
 </g>
 <defs>
  <clipPath id="p08063dd03c">
   <rect height="326.16" width="558" x="90" y="51.84"/>
  </clipPath>
 </defs>
</svg>
